<?xml version="1.0" encoding="utf-8" standalone="no"?>
<!DOCTYPE svg PUBLIC "-//W3C//DTD SVG 1.1//EN"
  "http://www.w3.org/Graphics/SVG/1.1/DTD/svg11.dtd">
<svg xmlns:xlink="http://www.w3.org/1999/xlink" width="720pt" height="648pt" viewBox="0 0 720 648" xmlns="http://www.w3.org/2000/svg" version="1.1">
 <metadata>
  <rdf:RDF xmlns:dc="http://purl.org/dc/elements/1.1/" xmlns:cc="http://creativecommons.org/ns#" xmlns:rdf="http://www.w3.org/1999/02/22-rdf-syntax-ns#">
   <cc:Work>
    <dc:type rdf:resource="http://purl.org/dc/dcmitype/StillImage"/>
    <dc:date>2026-03-24T15:50:45.314437</dc:date>
    <dc:format>image/svg+xml</dc:format>
    <dc:creator>
     <cc:Agent>
      <dc:title>Matplotlib v3.7.1, https://matplotlib.org/</dc:title>
     </cc:Agent>
    </dc:creator>
   </cc:Work>
  </rdf:RDF>
 </metadata>
 <defs>
  <style type="text/css">*{stroke-linejoin: round; stroke-linecap: butt}</style>
 </defs>
 <g id="figure_1">
  <g id="patch_1">
   <path d="M 0 648 
L 720 648 
L 720 0 
L 0 0 
z
" style="fill: #ffffff"/>
  </g>
  <g id="axes_1">
   <g id="patch_2">
    <path d="M 98.578641 560.929182 
L 671.76805 560.929182 
L 671.76805 50.454671 
L 98.578641 50.454671 
z
" style="fill: #ffffff"/>
   </g>
   <g id="matplotlib.axis_1">
    <g id="xtick_1">
     <g id="line2d_1">
      <defs>
       <path id="m0eda059739" d="M 0 0 
L 0 3.5 
" style="stroke: #000000; stroke-width: 0.8"/>
      </defs>
      <g>
       <use xlink:href="#m0eda059739" x="98.578641" y="560.929182" style="stroke: #000000; stroke-width: 0.8"/>
      </g>
     </g>
     <g id="text_1">
      <!-- 4.5 -->
      <g transform="translate(82.675516 583.126057) scale(0.2 -0.2)">
       <defs>
        <path id="DejaVuSans-34" d="M 2419 4116 
L 825 1625 
L 2419 1625 
L 2419 4116 
z
M 2253 4666 
L 3047 4666 
L 3047 1625 
L 3713 1625 
L 3713 1100 
L 3047 1100 
L 3047 0 
L 2419 0 
L 2419 1100 
L 313 1100 
L 313 1709 
L 2253 4666 
z
" transform="scale(0.015625)"/>
        <path id="DejaVuSans-2e" d="M 684 794 
L 1344 794 
L 1344 0 
L 684 0 
L 684 794 
z
" transform="scale(0.015625)"/>
        <path id="DejaVuSans-35" d="M 691 4666 
L 3169 4666 
L 3169 4134 
L 1269 4134 
L 1269 2991 
Q 1406 3038 1543 3061 
Q 1681 3084 1819 3084 
Q 2600 3084 3056 2656 
Q 3513 2228 3513 1497 
Q 3513 744 3044 326 
Q 2575 -91 1722 -91 
Q 1428 -91 1123 -41 
Q 819 9 494 109 
L 494 744 
Q 775 591 1075 516 
Q 1375 441 1709 441 
Q 2250 441 2565 725 
Q 2881 1009 2881 1497 
Q 2881 1984 2565 2268 
Q 2250 2553 1709 2553 
Q 1456 2553 1204 2497 
Q 953 2441 691 2322 
L 691 4666 
z
" transform="scale(0.015625)"/>
       </defs>
       <use xlink:href="#DejaVuSans-34"/>
       <use xlink:href="#DejaVuSans-2e" x="63.623047"/>
       <use xlink:href="#DejaVuSans-35" x="95.410156"/>
      </g>
     </g>
    </g>
    <g id="xtick_2">
     <g id="line2d_2">
      <g>
       <use xlink:href="#m0eda059739" x="170.227317" y="560.929182" style="stroke: #000000; stroke-width: 0.8"/>
      </g>
     </g>
     <g id="text_2">
      <!-- 5.0 -->
      <g transform="translate(154.324192 583.126057) scale(0.2 -0.2)">
       <defs>
        <path id="DejaVuSans-30" d="M 2034 4250 
Q 1547 4250 1301 3770 
Q 1056 3291 1056 2328 
Q 1056 1369 1301 889 
Q 1547 409 2034 409 
Q 2525 409 2770 889 
Q 3016 1369 3016 2328 
Q 3016 3291 2770 3770 
Q 2525 4250 2034 4250 
z
M 2034 4750 
Q 2819 4750 3233 4129 
Q 3647 3509 3647 2328 
Q 3647 1150 3233 529 
Q 2819 -91 2034 -91 
Q 1250 -91 836 529 
Q 422 1150 422 2328 
Q 422 3509 836 4129 
Q 1250 4750 2034 4750 
z
" transform="scale(0.015625)"/>
       </defs>
       <use xlink:href="#DejaVuSans-35"/>
       <use xlink:href="#DejaVuSans-2e" x="63.623047"/>
       <use xlink:href="#DejaVuSans-30" x="95.410156"/>
      </g>
     </g>
    </g>
    <g id="xtick_3">
     <g id="line2d_3">
      <g>
       <use xlink:href="#m0eda059739" x="241.875993" y="560.929182" style="stroke: #000000; stroke-width: 0.8"/>
      </g>
     </g>
     <g id="text_3">
      <!-- 5.5 -->
      <g transform="translate(225.972868 583.126057) scale(0.2 -0.2)">
       <use xlink:href="#DejaVuSans-35"/>
       <use xlink:href="#DejaVuSans-2e" x="63.623047"/>
       <use xlink:href="#DejaVuSans-35" x="95.410156"/>
      </g>
     </g>
    </g>
    <g id="xtick_4">
     <g id="line2d_4">
      <g>
       <use xlink:href="#m0eda059739" x="313.524669" y="560.929182" style="stroke: #000000; stroke-width: 0.8"/>
      </g>
     </g>
     <g id="text_4">
      <!-- 6.0 -->
      <g transform="translate(297.621544 583.126057) scale(0.2 -0.2)">
       <defs>
        <path id="DejaVuSans-36" d="M 2113 2584 
Q 1688 2584 1439 2293 
Q 1191 2003 1191 1497 
Q 1191 994 1439 701 
Q 1688 409 2113 409 
Q 2538 409 2786 701 
Q 3034 994 3034 1497 
Q 3034 2003 2786 2293 
Q 2538 2584 2113 2584 
z
M 3366 4563 
L 3366 3988 
Q 3128 4100 2886 4159 
Q 2644 4219 2406 4219 
Q 1781 4219 1451 3797 
Q 1122 3375 1075 2522 
Q 1259 2794 1537 2939 
Q 1816 3084 2150 3084 
Q 2853 3084 3261 2657 
Q 3669 2231 3669 1497 
Q 3669 778 3244 343 
Q 2819 -91 2113 -91 
Q 1303 -91 875 529 
Q 447 1150 447 2328 
Q 447 3434 972 4092 
Q 1497 4750 2381 4750 
Q 2619 4750 2861 4703 
Q 3103 4656 3366 4563 
z
" transform="scale(0.015625)"/>
       </defs>
       <use xlink:href="#DejaVuSans-36"/>
       <use xlink:href="#DejaVuSans-2e" x="63.623047"/>
       <use xlink:href="#DejaVuSans-30" x="95.410156"/>
      </g>
     </g>
    </g>
    <g id="xtick_5">
     <g id="line2d_5">
      <g>
       <use xlink:href="#m0eda059739" x="385.173346" y="560.929182" style="stroke: #000000; stroke-width: 0.8"/>
      </g>
     </g>
     <g id="text_5">
      <!-- 6.5 -->
      <g transform="translate(369.270221 583.126057) scale(0.2 -0.2)">
       <use xlink:href="#DejaVuSans-36"/>
       <use xlink:href="#DejaVuSans-2e" x="63.623047"/>
       <use xlink:href="#DejaVuSans-35" x="95.410156"/>
      </g>
     </g>
    </g>
    <g id="xtick_6">
     <g id="line2d_6">
      <g>
       <use xlink:href="#m0eda059739" x="456.822022" y="560.929182" style="stroke: #000000; stroke-width: 0.8"/>
      </g>
     </g>
     <g id="text_6">
      <!-- 7.0 -->
      <g transform="translate(440.918897 583.126057) scale(0.2 -0.2)">
       <defs>
        <path id="DejaVuSans-37" d="M 525 4666 
L 3525 4666 
L 3525 4397 
L 1831 0 
L 1172 0 
L 2766 4134 
L 525 4134 
L 525 4666 
z
" transform="scale(0.015625)"/>
       </defs>
       <use xlink:href="#DejaVuSans-37"/>
       <use xlink:href="#DejaVuSans-2e" x="63.623047"/>
       <use xlink:href="#DejaVuSans-30" x="95.410156"/>
      </g>
     </g>
    </g>
    <g id="xtick_7">
     <g id="line2d_7">
      <g>
       <use xlink:href="#m0eda059739" x="528.470698" y="560.929182" style="stroke: #000000; stroke-width: 0.8"/>
      </g>
     </g>
     <g id="text_7">
      <!-- 7.5 -->
      <g transform="translate(512.567573 583.126057) scale(0.2 -0.2)">
       <use xlink:href="#DejaVuSans-37"/>
       <use xlink:href="#DejaVuSans-2e" x="63.623047"/>
       <use xlink:href="#DejaVuSans-35" x="95.410156"/>
      </g>
     </g>
    </g>
    <g id="xtick_8">
     <g id="line2d_8">
      <g>
       <use xlink:href="#m0eda059739" x="600.119374" y="560.929182" style="stroke: #000000; stroke-width: 0.8"/>
      </g>
     </g>
     <g id="text_8">
      <!-- 8.0 -->
      <g transform="translate(584.216249 583.126057) scale(0.2 -0.2)">
       <defs>
        <path id="DejaVuSans-38" d="M 2034 2216 
Q 1584 2216 1326 1975 
Q 1069 1734 1069 1313 
Q 1069 891 1326 650 
Q 1584 409 2034 409 
Q 2484 409 2743 651 
Q 3003 894 3003 1313 
Q 3003 1734 2745 1975 
Q 2488 2216 2034 2216 
z
M 1403 2484 
Q 997 2584 770 2862 
Q 544 3141 544 3541 
Q 544 4100 942 4425 
Q 1341 4750 2034 4750 
Q 2731 4750 3128 4425 
Q 3525 4100 3525 3541 
Q 3525 3141 3298 2862 
Q 3072 2584 2669 2484 
Q 3125 2378 3379 2068 
Q 3634 1759 3634 1313 
Q 3634 634 3220 271 
Q 2806 -91 2034 -91 
Q 1263 -91 848 271 
Q 434 634 434 1313 
Q 434 1759 690 2068 
Q 947 2378 1403 2484 
z
M 1172 3481 
Q 1172 3119 1398 2916 
Q 1625 2713 2034 2713 
Q 2441 2713 2670 2916 
Q 2900 3119 2900 3481 
Q 2900 3844 2670 4047 
Q 2441 4250 2034 4250 
Q 1625 4250 1398 4047 
Q 1172 3844 1172 3481 
z
" transform="scale(0.015625)"/>
       </defs>
       <use xlink:href="#DejaVuSans-38"/>
       <use xlink:href="#DejaVuSans-2e" x="63.623047"/>
       <use xlink:href="#DejaVuSans-30" x="95.410156"/>
      </g>
     </g>
    </g>
    <g id="xtick_9">
     <g id="line2d_9">
      <g>
       <use xlink:href="#m0eda059739" x="671.76805" y="560.929182" style="stroke: #000000; stroke-width: 0.8"/>
      </g>
     </g>
     <g id="text_9">
      <!-- 8.5 -->
      <g transform="translate(655.864925 583.126057) scale(0.2 -0.2)">
       <use xlink:href="#DejaVuSans-38"/>
       <use xlink:href="#DejaVuSans-2e" x="63.623047"/>
       <use xlink:href="#DejaVuSans-35" x="95.410156"/>
      </g>
     </g>
    </g>
    <g id="text_10">
     <!-- time $t$ [s] -->
     <g transform="translate(327.798346 610.281526) scale(0.25 -0.25)">
      <defs>
       <path id="DejaVuSans-74" d="M 1172 4494 
L 1172 3500 
L 2356 3500 
L 2356 3053 
L 1172 3053 
L 1172 1153 
Q 1172 725 1289 603 
Q 1406 481 1766 481 
L 2356 481 
L 2356 0 
L 1766 0 
Q 1100 0 847 248 
Q 594 497 594 1153 
L 594 3053 
L 172 3053 
L 172 3500 
L 594 3500 
L 594 4494 
L 1172 4494 
z
" transform="scale(0.015625)"/>
       <path id="DejaVuSans-69" d="M 603 3500 
L 1178 3500 
L 1178 0 
L 603 0 
L 603 3500 
z
M 603 4863 
L 1178 4863 
L 1178 4134 
L 603 4134 
L 603 4863 
z
" transform="scale(0.015625)"/>
       <path id="DejaVuSans-6d" d="M 3328 2828 
Q 3544 3216 3844 3400 
Q 4144 3584 4550 3584 
Q 5097 3584 5394 3201 
Q 5691 2819 5691 2113 
L 5691 0 
L 5113 0 
L 5113 2094 
Q 5113 2597 4934 2840 
Q 4756 3084 4391 3084 
Q 3944 3084 3684 2787 
Q 3425 2491 3425 1978 
L 3425 0 
L 2847 0 
L 2847 2094 
Q 2847 2600 2669 2842 
Q 2491 3084 2119 3084 
Q 1678 3084 1418 2786 
Q 1159 2488 1159 1978 
L 1159 0 
L 581 0 
L 581 3500 
L 1159 3500 
L 1159 2956 
Q 1356 3278 1631 3431 
Q 1906 3584 2284 3584 
Q 2666 3584 2933 3390 
Q 3200 3197 3328 2828 
z
" transform="scale(0.015625)"/>
       <path id="DejaVuSans-65" d="M 3597 1894 
L 3597 1613 
L 953 1613 
Q 991 1019 1311 708 
Q 1631 397 2203 397 
Q 2534 397 2845 478 
Q 3156 559 3463 722 
L 3463 178 
Q 3153 47 2828 -22 
Q 2503 -91 2169 -91 
Q 1331 -91 842 396 
Q 353 884 353 1716 
Q 353 2575 817 3079 
Q 1281 3584 2069 3584 
Q 2775 3584 3186 3129 
Q 3597 2675 3597 1894 
z
M 3022 2063 
Q 3016 2534 2758 2815 
Q 2500 3097 2075 3097 
Q 1594 3097 1305 2825 
Q 1016 2553 972 2059 
L 3022 2063 
z
" transform="scale(0.015625)"/>
       <path id="DejaVuSans-20" transform="scale(0.015625)"/>
       <path id="DejaVuSans-Oblique-74" d="M 2706 3500 
L 2619 3053 
L 1472 3053 
L 1100 1153 
Q 1081 1047 1072 975 
Q 1063 903 1063 863 
Q 1063 663 1183 572 
Q 1303 481 1569 481 
L 2150 481 
L 2053 0 
L 1503 0 
Q 991 0 739 200 
Q 488 400 488 806 
Q 488 878 497 964 
Q 506 1050 525 1153 
L 897 3053 
L 409 3053 
L 500 3500 
L 978 3500 
L 1172 4494 
L 1747 4494 
L 1556 3500 
L 2706 3500 
z
" transform="scale(0.015625)"/>
       <path id="DejaVuSans-5b" d="M 550 4863 
L 1875 4863 
L 1875 4416 
L 1125 4416 
L 1125 -397 
L 1875 -397 
L 1875 -844 
L 550 -844 
L 550 4863 
z
" transform="scale(0.015625)"/>
       <path id="DejaVuSans-73" d="M 2834 3397 
L 2834 2853 
Q 2591 2978 2328 3040 
Q 2066 3103 1784 3103 
Q 1356 3103 1142 2972 
Q 928 2841 928 2578 
Q 928 2378 1081 2264 
Q 1234 2150 1697 2047 
L 1894 2003 
Q 2506 1872 2764 1633 
Q 3022 1394 3022 966 
Q 3022 478 2636 193 
Q 2250 -91 1575 -91 
Q 1294 -91 989 -36 
Q 684 19 347 128 
L 347 722 
Q 666 556 975 473 
Q 1284 391 1588 391 
Q 1994 391 2212 530 
Q 2431 669 2431 922 
Q 2431 1156 2273 1281 
Q 2116 1406 1581 1522 
L 1381 1569 
Q 847 1681 609 1914 
Q 372 2147 372 2553 
Q 372 3047 722 3315 
Q 1072 3584 1716 3584 
Q 2034 3584 2315 3537 
Q 2597 3491 2834 3397 
z
" transform="scale(0.015625)"/>
       <path id="DejaVuSans-5d" d="M 1947 4863 
L 1947 -844 
L 622 -844 
L 622 -397 
L 1369 -397 
L 1369 4416 
L 622 4416 
L 622 4863 
L 1947 4863 
z
" transform="scale(0.015625)"/>
      </defs>
      <use xlink:href="#DejaVuSans-74" transform="translate(0 0.015625)"/>
      <use xlink:href="#DejaVuSans-69" transform="translate(39.208984 0.015625)"/>
      <use xlink:href="#DejaVuSans-6d" transform="translate(66.992188 0.015625)"/>
      <use xlink:href="#DejaVuSans-65" transform="translate(164.404297 0.015625)"/>
      <use xlink:href="#DejaVuSans-20" transform="translate(225.927734 0.015625)"/>
      <use xlink:href="#DejaVuSans-Oblique-74" transform="translate(257.714844 0.015625)"/>
      <use xlink:href="#DejaVuSans-20" transform="translate(296.923828 0.015625)"/>
      <use xlink:href="#DejaVuSans-5b" transform="translate(328.710938 0.015625)"/>
      <use xlink:href="#DejaVuSans-73" transform="translate(367.724609 0.015625)"/>
      <use xlink:href="#DejaVuSans-5d" transform="translate(419.824219 0.015625)"/>
     </g>
    </g>
   </g>
   <g id="matplotlib.axis_2">
    <g id="ytick_1">
     <g id="line2d_10">
      <defs>
       <path id="m226edf5297" d="M 0 0 
L -3.5 0 
" style="stroke: #000000; stroke-width: 0.8"/>
      </defs>
      <g>
       <use xlink:href="#m226edf5297" x="98.578641" y="468.33634" style="stroke: #000000; stroke-width: 0.8"/>
      </g>
     </g>
     <g id="text_11">
      <!-- −2 -->
      <g transform="translate(62.094266 475.934777) scale(0.2 -0.2)">
       <defs>
        <path id="DejaVuSans-2212" d="M 678 2272 
L 4684 2272 
L 4684 1741 
L 678 1741 
L 678 2272 
z
" transform="scale(0.015625)"/>
        <path id="DejaVuSans-32" d="M 1228 531 
L 3431 531 
L 3431 0 
L 469 0 
L 469 531 
Q 828 903 1448 1529 
Q 2069 2156 2228 2338 
Q 2531 2678 2651 2914 
Q 2772 3150 2772 3378 
Q 2772 3750 2511 3984 
Q 2250 4219 1831 4219 
Q 1534 4219 1204 4116 
Q 875 4013 500 3803 
L 500 4441 
Q 881 4594 1212 4672 
Q 1544 4750 1819 4750 
Q 2544 4750 2975 4387 
Q 3406 4025 3406 3419 
Q 3406 3131 3298 2873 
Q 3191 2616 2906 2266 
Q 2828 2175 2409 1742 
Q 1991 1309 1228 531 
z
" transform="scale(0.015625)"/>
       </defs>
       <use xlink:href="#DejaVuSans-2212"/>
       <use xlink:href="#DejaVuSans-32" x="83.789062"/>
      </g>
     </g>
    </g>
    <g id="ytick_2">
     <g id="line2d_11">
      <g>
       <use xlink:href="#m226edf5297" x="98.578641" y="374.83167" style="stroke: #000000; stroke-width: 0.8"/>
      </g>
     </g>
     <g id="text_12">
      <!-- −1 -->
      <g transform="translate(62.094266 382.430107) scale(0.2 -0.2)">
       <defs>
        <path id="DejaVuSans-31" d="M 794 531 
L 1825 531 
L 1825 4091 
L 703 3866 
L 703 4441 
L 1819 4666 
L 2450 4666 
L 2450 531 
L 3481 531 
L 3481 0 
L 794 0 
L 794 531 
z
" transform="scale(0.015625)"/>
       </defs>
       <use xlink:href="#DejaVuSans-2212"/>
       <use xlink:href="#DejaVuSans-31" x="83.789062"/>
      </g>
     </g>
    </g>
    <g id="ytick_3">
     <g id="line2d_12">
      <g>
       <use xlink:href="#m226edf5297" x="98.578641" y="281.327" style="stroke: #000000; stroke-width: 0.8"/>
      </g>
     </g>
     <g id="text_13">
      <!-- 0 -->
      <g transform="translate(78.853641 288.925438) scale(0.2 -0.2)">
       <use xlink:href="#DejaVuSans-30"/>
      </g>
     </g>
    </g>
    <g id="ytick_4">
     <g id="line2d_13">
      <g>
       <use xlink:href="#m226edf5297" x="98.578641" y="187.82233" style="stroke: #000000; stroke-width: 0.8"/>
      </g>
     </g>
     <g id="text_14">
      <!-- 1 -->
      <g transform="translate(78.853641 195.420768) scale(0.2 -0.2)">
       <use xlink:href="#DejaVuSans-31"/>
      </g>
     </g>
    </g>
    <g id="ytick_5">
     <g id="line2d_14">
      <g>
       <use xlink:href="#m226edf5297" x="98.578641" y="94.31766" style="stroke: #000000; stroke-width: 0.8"/>
      </g>
     </g>
     <g id="text_15">
      <!-- 2 -->
      <g transform="translate(78.853641 101.916098) scale(0.2 -0.2)">
       <use xlink:href="#DejaVuSans-32"/>
      </g>
     </g>
    </g>
    <g id="text_16">
     <!-- NN force $F_M$ [N] -->
     <g transform="translate(52.895047 402.316926) rotate(-90) scale(0.25 -0.25)">
      <defs>
       <path id="DejaVuSans-4e" d="M 628 4666 
L 1478 4666 
L 3547 763 
L 3547 4666 
L 4159 4666 
L 4159 0 
L 3309 0 
L 1241 3903 
L 1241 0 
L 628 0 
L 628 4666 
z
" transform="scale(0.015625)"/>
       <path id="DejaVuSans-66" d="M 2375 4863 
L 2375 4384 
L 1825 4384 
Q 1516 4384 1395 4259 
Q 1275 4134 1275 3809 
L 1275 3500 
L 2222 3500 
L 2222 3053 
L 1275 3053 
L 1275 0 
L 697 0 
L 697 3053 
L 147 3053 
L 147 3500 
L 697 3500 
L 697 3744 
Q 697 4328 969 4595 
Q 1241 4863 1831 4863 
L 2375 4863 
z
" transform="scale(0.015625)"/>
       <path id="DejaVuSans-6f" d="M 1959 3097 
Q 1497 3097 1228 2736 
Q 959 2375 959 1747 
Q 959 1119 1226 758 
Q 1494 397 1959 397 
Q 2419 397 2687 759 
Q 2956 1122 2956 1747 
Q 2956 2369 2687 2733 
Q 2419 3097 1959 3097 
z
M 1959 3584 
Q 2709 3584 3137 3096 
Q 3566 2609 3566 1747 
Q 3566 888 3137 398 
Q 2709 -91 1959 -91 
Q 1206 -91 779 398 
Q 353 888 353 1747 
Q 353 2609 779 3096 
Q 1206 3584 1959 3584 
z
" transform="scale(0.015625)"/>
       <path id="DejaVuSans-72" d="M 2631 2963 
Q 2534 3019 2420 3045 
Q 2306 3072 2169 3072 
Q 1681 3072 1420 2755 
Q 1159 2438 1159 1844 
L 1159 0 
L 581 0 
L 581 3500 
L 1159 3500 
L 1159 2956 
Q 1341 3275 1631 3429 
Q 1922 3584 2338 3584 
Q 2397 3584 2469 3576 
Q 2541 3569 2628 3553 
L 2631 2963 
z
" transform="scale(0.015625)"/>
       <path id="DejaVuSans-63" d="M 3122 3366 
L 3122 2828 
Q 2878 2963 2633 3030 
Q 2388 3097 2138 3097 
Q 1578 3097 1268 2742 
Q 959 2388 959 1747 
Q 959 1106 1268 751 
Q 1578 397 2138 397 
Q 2388 397 2633 464 
Q 2878 531 3122 666 
L 3122 134 
Q 2881 22 2623 -34 
Q 2366 -91 2075 -91 
Q 1284 -91 818 406 
Q 353 903 353 1747 
Q 353 2603 823 3093 
Q 1294 3584 2113 3584 
Q 2378 3584 2631 3529 
Q 2884 3475 3122 3366 
z
" transform="scale(0.015625)"/>
       <path id="DejaVuSans-Oblique-46" d="M 1081 4666 
L 3756 4666 
L 3653 4134 
L 1606 4134 
L 1338 2759 
L 3188 2759 
L 3084 2228 
L 1234 2228 
L 800 0 
L 172 0 
L 1081 4666 
z
" transform="scale(0.015625)"/>
       <path id="DejaVuSans-Oblique-4d" d="M 1081 4666 
L 2028 4666 
L 2572 1522 
L 4378 4666 
L 5350 4666 
L 4441 0 
L 3828 0 
L 4622 4091 
L 2791 897 
L 2175 897 
L 1581 4103 
L 788 0 
L 172 0 
L 1081 4666 
z
" transform="scale(0.015625)"/>
      </defs>
      <use xlink:href="#DejaVuSans-4e" transform="translate(0 0.015625)"/>
      <use xlink:href="#DejaVuSans-4e" transform="translate(74.804688 0.015625)"/>
      <use xlink:href="#DejaVuSans-20" transform="translate(149.609375 0.015625)"/>
      <use xlink:href="#DejaVuSans-66" transform="translate(181.396484 0.015625)"/>
      <use xlink:href="#DejaVuSans-6f" transform="translate(216.601562 0.015625)"/>
      <use xlink:href="#DejaVuSans-72" transform="translate(277.783203 0.015625)"/>
      <use xlink:href="#DejaVuSans-63" transform="translate(318.896484 0.015625)"/>
      <use xlink:href="#DejaVuSans-65" transform="translate(373.876953 0.015625)"/>
      <use xlink:href="#DejaVuSans-20" transform="translate(435.400391 0.015625)"/>
      <use xlink:href="#DejaVuSans-Oblique-46" transform="translate(467.1875 0.015625)"/>
      <use xlink:href="#DejaVuSans-Oblique-4d" transform="translate(524.707031 -16.390625) scale(0.7)"/>
      <use xlink:href="#DejaVuSans-20" transform="translate(587.836914 0.015625)"/>
      <use xlink:href="#DejaVuSans-5b" transform="translate(619.624023 0.015625)"/>
      <use xlink:href="#DejaVuSans-4e" transform="translate(658.637695 0.015625)"/>
      <use xlink:href="#DejaVuSans-5d" transform="translate(733.442383 0.015625)"/>
     </g>
    </g>
    <g id="text_17">
     <!-- 1e−13 -->
     <g transform="translate(98.578641 47.454671) scale(0.2 -0.2)">
      <defs>
       <path id="DejaVuSans-33" d="M 2597 2516 
Q 3050 2419 3304 2112 
Q 3559 1806 3559 1356 
Q 3559 666 3084 287 
Q 2609 -91 1734 -91 
Q 1441 -91 1130 -33 
Q 819 25 488 141 
L 488 750 
Q 750 597 1062 519 
Q 1375 441 1716 441 
Q 2309 441 2620 675 
Q 2931 909 2931 1356 
Q 2931 1769 2642 2001 
Q 2353 2234 1838 2234 
L 1294 2234 
L 1294 2753 
L 1863 2753 
Q 2328 2753 2575 2939 
Q 2822 3125 2822 3475 
Q 2822 3834 2567 4026 
Q 2313 4219 1838 4219 
Q 1578 4219 1281 4162 
Q 984 4106 628 3988 
L 628 4550 
Q 988 4650 1302 4700 
Q 1616 4750 1894 4750 
Q 2613 4750 3031 4423 
Q 3450 4097 3450 3541 
Q 3450 3153 3228 2886 
Q 3006 2619 2597 2516 
z
" transform="scale(0.015625)"/>
      </defs>
      <use xlink:href="#DejaVuSans-31"/>
      <use xlink:href="#DejaVuSans-65" x="63.623047"/>
      <use xlink:href="#DejaVuSans-2212" x="125.146484"/>
      <use xlink:href="#DejaVuSans-31" x="208.935547"/>
      <use xlink:href="#DejaVuSans-33" x="272.558594"/>
     </g>
    </g>
   </g>
   <g id="line2d_15">
    <path d="M 97.145668 281.327 
L 98.578641 257.228053 
L 100.011615 256.624976 
L 101.444588 255.642781 
L 102.877562 254.213805 
L 104.310535 252.269909 
L 105.743509 249.74438 
L 107.176482 246.574759 
L 108.609456 242.706235 
L 110.042429 238.096087 
L 111.475403 232.718809 
L 112.908376 226.571906 
L 114.34135 219.682098 
L 117.207297 203.963871 
L 124.372164 161.581905 
L 125.805138 154.869552 
L 127.238112 149.636658 
L 128.671085 146.312239 
L 130.104059 145.32094 
L 131.537032 147.061507 
L 132.970006 151.884701 
L 134.402979 160.07033 
L 135.835953 171.804441 
L 137.268926 187.159613 
L 138.7019 206.078455 
L 140.134873 228.362429 
L 141.567847 253.667397 
L 144.433794 311.261068 
L 150.165688 433.65475 
L 151.598661 460.740227 
L 153.031635 484.719117 
L 154.464608 504.868869 
L 155.897582 520.595226 
L 157.330555 531.459385 
L 158.763529 537.196677 
L 160.196503 537.725795 
L 161.629476 533.149808 
L 163.06245 523.747262 
L 164.495423 509.954024 
L 165.928397 492.339105 
L 167.36137 471.574474 
L 170.227317 423.592891 
L 175.959211 322.858347 
L 177.392185 300.462263 
L 178.825158 280.120948 
L 180.258132 262.11405 
L 181.691105 246.610928 
L 183.124079 233.677688 
L 184.557052 223.289014 
L 185.990026 215.340813 
L 187.422999 209.666452 
L 188.855973 206.052981 
L 190.288947 204.256003 
L 191.72192 204.014871 
L 193.154894 205.065635 
L 194.587867 207.150985 
L 196.020841 210.02957 
L 197.453814 213.481733 
L 200.319761 221.358478 
L 204.618682 233.523914 
L 207.484629 240.847745 
L 210.350576 247.16102 
L 211.783549 249.910794 
L 213.216523 252.393884 
L 214.649496 254.621796 
L 216.08247 256.610681 
L 217.515443 258.379088 
L 218.948417 259.947494 
L 220.38139 261.337234 
L 223.247338 263.66629 
L 226.113285 265.535351 
L 228.979232 267.103119 
L 240.44302 272.899398 
L 244.74194 275.551364 
L 250.473834 279.49596 
L 254.772755 282.44248 
L 257.638702 284.225388 
L 260.504649 285.762581 
L 263.370596 286.993436 
L 266.236543 287.887038 
L 269.10249 288.444691 
L 271.968437 288.696142 
L 274.834384 288.691651 
L 277.700331 288.492554 
L 281.999252 287.968764 
L 293.46304 286.397708 
L 299.194934 285.878564 
L 304.926828 285.573324 
L 313.524669 285.389769 
L 330.720352 285.155809 
L 337.885219 284.780673 
L 343.617113 284.268317 
L 349.349007 283.560442 
L 356.513875 282.448026 
L 367.977663 280.391257 
L 382.307399 277.870114 
L 390.90524 276.567406 
L 398.070107 275.674003 
L 405.234975 274.99246 
L 412.399842 274.533422 
L 420.997684 274.245072 
L 431.028498 274.155351 
L 449.657154 274.259613 
L 463.986889 274.511267 
L 472.58473 274.871582 
L 479.749598 275.402005 
L 486.914466 276.179757 
L 494.079333 277.209498 
L 499.811227 278.229248 
L 505.543121 279.455868 
L 511.275016 280.937335 
L 515.573936 282.249712 
L 519.872857 283.755749 
L 525.604751 286.052316 
L 539.934486 292.10138 
L 542.800433 293.029599 
L 545.66638 293.74977 
L 548.532327 294.222675 
L 551.398274 294.423013 
L 554.264221 294.342647 
L 557.130168 293.992905 
L 559.996115 293.404315 
L 562.862062 292.624249 
L 567.160983 291.218698 
L 577.191798 287.781629 
L 581.490718 286.5202 
L 587.222612 285.110904 
L 592.954506 283.972523 
L 598.6864 283.053114 
L 605.851268 282.161528 
L 613.016136 281.503705 
L 623.04695 280.839385 
L 635.943712 280.223468 
L 645.974527 279.951137 
L 656.005341 279.92954 
L 670.335077 280.189496 
L 671.76805 281.327 
L 673.201024 281.327 
L 673.201024 281.327 
" clip-path="url(#p67b99a9bf6)" style="fill: none; stroke: #1f77b4; stroke-width: 1.5; stroke-linecap: square"/>
   </g>
   <g id="line2d_16">
    <path d="M 97.145668 281.327 
L 98.578641 269.219094 
L 100.011615 267.921679 
L 101.444588 266.411016 
L 102.877562 264.64726 
L 104.310535 262.58861 
L 105.743509 260.192833 
L 107.176482 257.4193 
L 108.609456 254.231589 
L 110.042429 250.6006 
L 111.475403 246.508192 
L 112.908376 241.95126 
L 114.34135 236.945968 
L 117.207297 225.776924 
L 122.939191 201.819056 
L 124.372164 196.509285 
L 125.805138 191.945167 
L 127.238112 188.403434 
L 128.671085 186.16971 
L 130.104059 185.526572 
L 131.537032 186.739496 
L 132.970006 190.041891 
L 134.402979 195.619605 
L 135.835953 203.596013 
L 137.268926 214.01847 
L 138.7019 226.847408 
L 140.134873 241.948856 
L 141.567847 259.091381 
L 144.433794 298.10308 
L 150.165688 381.117207 
L 151.598661 399.542819 
L 153.031635 415.893463 
L 154.464608 429.682328 
L 155.897582 440.50849 
L 157.330555 448.074791 
L 158.763529 452.200469 
L 160.196503 452.827687 
L 161.629476 450.022058 
L 163.06245 443.966848 
L 164.495423 434.951071 
L 165.928397 423.353266 
L 167.36137 409.621422 
L 170.227317 377.757628 
L 175.959211 310.51617 
L 177.392185 295.512304 
L 178.825158 281.864264 
L 180.258132 269.761653 
L 181.691105 259.320374 
L 183.124079 250.587262 
L 184.557052 243.547675 
L 185.990026 238.134321 
L 187.422999 234.237717 
L 188.855973 231.717132 
L 190.288947 230.41076 
L 191.72192 230.145584 
L 193.154894 230.746234 
L 194.587867 232.041893 
L 196.020841 233.872093 
L 197.453814 236.091123 
L 200.319761 241.200136 
L 204.618682 249.171829 
L 207.484629 254.030327 
L 210.350576 258.287337 
L 213.216523 261.910498 
L 216.08247 264.952792 
L 218.948417 267.506392 
L 221.814364 269.671388 
L 224.680311 271.537895 
L 227.546258 273.177518 
L 231.845179 275.319256 
L 236.144099 277.16148 
L 240.44302 278.739358 
L 244.74194 280.054236 
L 249.040861 281.100227 
L 253.339781 281.880058 
L 257.638702 282.413248 
L 261.937623 282.736591 
L 267.669517 282.926414 
L 276.267358 282.942078 
L 289.16412 282.965781 
L 296.328987 283.197285 
L 302.060881 283.584595 
L 307.792775 284.189942 
L 314.957643 285.22111 
L 326.421431 286.993978 
L 330.720352 287.472199 
L 335.019272 287.748712 
L 339.318193 287.782421 
L 343.617113 287.556112 
L 347.916034 287.073741 
L 352.214955 286.35946 
L 357.946849 285.118664 
L 365.111716 283.292369 
L 375.142531 280.723699 
L 380.874425 279.456371 
L 386.606319 278.412854 
L 392.338213 277.617899 
L 398.070107 277.079409 
L 403.802001 276.803996 
L 408.100922 276.787917 
L 412.399842 276.976149 
L 416.698763 277.447143 
L 419.56471 277.979026 
L 422.430657 278.739916 
L 425.296604 279.779287 
L 428.162551 281.136621 
L 431.028498 282.825619 
L 433.894445 284.813029 
L 442.492286 291.141927 
L 443.92526 291.913811 
L 445.358234 292.490888 
L 446.791207 292.825906 
L 448.224181 292.873623 
L 449.657154 292.59291 
L 451.090128 291.949003 
L 452.523101 290.916273 
L 453.956075 289.480091 
L 455.389048 287.638816 
L 456.822022 285.40581 
L 458.254995 282.809845 
L 459.687969 279.895062 
L 462.553916 273.360812 
L 466.852836 263.044165 
L 468.28581 259.848322 
L 469.718783 256.935004 
L 471.151757 254.392472 
L 472.58473 252.297594 
L 474.017704 250.712658 
L 475.450677 249.682968 
L 476.883651 249.234438 
L 478.316625 249.372344 
L 479.749598 250.081622 
L 481.182572 251.327469 
L 482.615545 253.056533 
L 484.048519 255.199452 
L 485.481492 257.673614 
L 488.347439 263.236497 
L 491.213386 268.936394 
L 492.64636 271.578874 
L 494.079333 273.951734 
L 495.512307 275.964673 
L 496.94528 277.536142 
L 498.378254 278.595685 
L 499.811227 279.084613 
L 501.244201 278.957223 
L 502.677174 278.183055 
L 504.110148 276.747382 
L 505.543121 274.652243 
L 506.976095 271.91882 
L 508.409068 268.588083 
L 509.842042 264.721437 
L 512.707989 255.737071 
L 518.439883 236.450113 
L 519.872857 232.329637 
L 521.30583 228.868051 
L 522.738804 226.255248 
L 524.171777 224.669245 
L 525.604751 224.267959 
L 527.037724 225.180524 
L 528.470698 227.499104 
L 529.903671 231.272065 
L 531.336645 236.497942 
L 532.769618 243.12253 
L 534.202592 251.037756 
L 535.635565 260.082963 
L 538.501512 280.687877 
L 544.233407 324.104331 
L 545.66638 333.667318 
L 547.099354 342.165691 
L 548.532327 349.385769 
L 549.965301 355.16356 
L 551.398274 359.389895 
L 552.831248 362.013754 
L 554.264221 363.041658 
L 555.697195 362.534378 
L 557.130168 360.60204 
L 558.563142 357.395761 
L 559.996115 353.09889 
L 561.429089 347.916847 
L 564.295036 335.765948 
L 570.02693 310.021144 
L 571.459903 304.246905 
L 572.892877 298.960414 
L 574.325851 294.221878 
L 575.758824 290.064166 
L 577.191798 286.495909 
L 578.624771 283.504407 
L 580.057745 281.060667 
L 581.490718 279.123021 
L 582.923692 277.640558 
L 584.356665 276.557549 
L 585.789639 275.816527 
L 587.222612 275.360928 
L 588.655586 275.136845 
L 590.088559 275.094725 
L 592.954506 275.387426 
L 597.253427 276.29206 
L 604.418294 277.890842 
L 610.150189 278.888102 
L 617.315056 279.869923 
L 625.912897 280.825339 
L 631.644791 281.28912 
L 637.376686 281.540965 
L 643.10858 281.54471 
L 648.840474 281.313547 
L 656.005341 280.783632 
L 670.335077 279.542723 
L 671.76805 281.327 
L 673.201024 281.327 
L 673.201024 281.327 
" clip-path="url(#p67b99a9bf6)" style="fill: none; stroke: #ff7f0e; stroke-width: 1.5; stroke-linecap: square"/>
   </g>
   <g id="line2d_17">
    <path d="M 97.145668 281.327 
L 98.578641 276.507506 
L 100.011615 275.082878 
L 101.444588 273.311537 
L 102.877562 271.133209 
L 104.310535 268.484449 
L 105.743509 265.300852 
L 107.176482 261.520022 
L 108.609456 257.085402 
L 110.042429 251.950899 
L 111.475403 246.086251 
L 112.908376 239.48313 
L 114.34135 232.161461 
L 117.207297 215.621917 
L 124.372164 171.041804 
L 125.805138 163.798859 
L 127.238112 157.988255 
L 128.671085 154.033944 
L 130.104059 152.356639 
L 131.537032 153.353025 
L 132.970006 157.373617 
L 134.402979 164.699741 
L 135.835953 175.521385 
L 137.268926 189.916977 
L 138.7019 207.837056 
L 140.134873 229.092942 
L 141.567847 253.352113 
L 144.433794 308.853442 
L 150.165688 427.45938 
L 151.598661 453.760561 
L 153.031635 477.043447 
L 154.464608 496.593772 
L 155.897582 511.823607 
L 157.330555 522.298025 
L 158.763529 527.753844 
L 160.196503 528.109151 
L 161.629476 523.464091 
L 163.06245 514.092278 
L 164.495423 500.423352 
L 165.928397 483.018541 
L 167.36137 462.540811 
L 170.227317 415.325993 
L 174.526238 340.138411 
L 177.392185 294.796086 
L 178.825158 275.025014 
L 180.258132 257.589272 
L 181.691105 242.653283 
L 183.124079 230.279265 
L 184.557052 220.438321 
L 185.990026 213.024011 
L 187.422999 207.867895 
L 188.855973 204.755607 
L 190.288947 203.442273 
L 191.72192 203.666971 
L 193.154894 205.165802 
L 194.587867 207.682262 
L 196.020841 210.975735 
L 197.453814 214.827829 
L 200.319761 223.465036 
L 204.618682 236.698429 
L 207.484629 244.707406 
L 210.350576 251.700533 
L 211.783549 254.791541 
L 213.216523 257.617786 
L 214.649496 260.190776 
L 216.08247 262.526036 
L 217.515443 264.641107 
L 220.38139 268.283463 
L 223.247338 271.259959 
L 226.113285 273.69722 
L 228.979232 275.699107 
L 231.845179 277.348041 
L 234.711126 278.706622 
L 237.577073 279.823907 
L 240.44302 280.738574 
L 244.74194 281.799964 
L 249.040861 282.566614 
L 253.339781 283.110875 
L 259.071676 283.580187 
L 264.80357 283.813107 
L 270.535464 283.817934 
L 276.267358 283.582356 
L 281.999252 283.116781 
L 289.16412 282.303621 
L 304.926828 280.428462 
L 314.957643 279.540123 
L 329.287378 278.324042 
L 336.452246 277.464899 
L 345.050087 276.163881 
L 356.513875 274.428912 
L 363.678743 273.592036 
L 372.276584 272.821065 
L 386.606319 271.782728 
L 396.637134 271.277828 
L 408.100922 270.795142 
L 410.966869 270.524839 
L 413.832816 270.071357 
L 416.698763 269.326316 
L 418.131737 268.801962 
L 419.56471 268.15031 
L 420.997684 267.350223 
L 422.430657 266.379781 
L 423.863631 265.217615 
L 425.296604 263.843859 
L 426.729578 262.241597 
L 428.162551 260.398633 
L 429.595525 258.309261 
L 431.028498 255.976737 
L 433.894445 250.650298 
L 438.193366 241.631938 
L 441.059313 235.801317 
L 442.492286 233.26084 
L 443.92526 231.14414 
L 445.358234 229.591687 
L 446.791207 228.74571 
L 448.224181 228.74411 
L 449.657154 229.713537 
L 451.090128 231.761755 
L 452.523101 234.97032 
L 453.956075 239.387696 
L 455.389048 245.023205 
L 456.822022 251.842445 
L 458.254995 259.764291 
L 459.687969 268.659998 
L 462.553916 288.633306 
L 466.852836 320.339356 
L 468.28581 330.234122 
L 469.718783 339.306656 
L 471.151757 347.290395 
L 472.58473 353.951542 
L 474.017704 359.099438 
L 475.450677 362.595319 
L 476.883651 364.358357 
L 478.316625 364.369281 
L 479.749598 362.6707 
L 481.182572 359.364964 
L 482.615545 354.610057 
L 484.048519 348.613033 
L 485.481492 341.621474 
L 488.347439 325.792054 
L 491.213386 309.554821 
L 492.64636 302.063176 
L 494.079333 295.386395 
L 495.512307 289.798199 
L 496.94528 285.546005 
L 498.378254 282.846479 
L 499.811227 281.880683 
L 501.244201 282.790125 
L 502.677174 285.674144 
L 504.110148 290.585661 
L 505.543121 297.526767 
L 506.976095 306.445093 
L 508.409068 317.22947 
L 509.842042 329.70649 
L 511.275016 343.637742 
L 514.140963 374.57412 
L 518.439883 422.180704 
L 519.872857 436.281437 
L 521.30583 448.536552 
L 522.738804 458.366344 
L 524.171777 465.221227 
L 525.604751 468.607749 
L 527.037724 468.114455 
L 528.470698 463.436568 
L 529.903671 454.398569 
L 531.336645 440.970931 
L 532.769618 423.282166 
L 534.202592 401.623265 
L 535.635565 376.443554 
L 537.068539 348.33915 
L 539.934486 286.346656 
L 544.233407 191.991081 
L 545.66638 163.751588 
L 547.099354 138.46468 
L 548.532327 116.779148 
L 549.965301 99.199388 
L 551.398274 86.067083 
L 552.831248 77.553329 
L 554.264221 73.658058 
L 555.697195 74.21795 
L 557.130168 78.923887 
L 558.563142 87.342658 
L 559.996115 98.944638 
L 561.429089 113.133508 
L 562.862062 129.27612 
L 565.728009 164.888838 
L 568.593956 201.060096 
L 571.459903 234.035732 
L 572.892877 248.509369 
L 574.325851 261.378017 
L 575.758824 272.546784 
L 577.191798 281.993722 
L 578.624771 289.757552 
L 580.057745 295.92709 
L 581.490718 300.628338 
L 582.923692 304.01248 
L 584.356665 306.246647 
L 585.789639 307.503005 
L 587.222612 307.950863 
L 588.655586 307.751021 
L 590.088559 307.050842 
L 591.521533 305.981929 
L 592.954506 304.658089 
L 595.820453 301.610022 
L 600.119374 296.970414 
L 602.985321 294.242478 
L 605.851268 291.931448 
L 608.717215 290.037208 
L 611.583162 288.51578 
L 614.449109 287.304823 
L 617.315056 286.340582 
L 620.181003 285.564772 
L 624.479924 284.657464 
L 630.211818 283.758231 
L 637.376686 282.930348 
L 644.541553 282.328315 
L 653.139394 281.842626 
L 670.335077 281.198264 
L 671.76805 281.327 
L 673.201024 281.327 
L 673.201024 281.327 
" clip-path="url(#p67b99a9bf6)" style="fill: none; stroke-dasharray: 5.55,2.4; stroke-dashoffset: 0; stroke: #2ca02c; stroke-width: 1.5"/>
   </g>
   <g id="line2d_18">
    <path d="M 97.145668 281.327 
L 98.578641 278.114004 
L 100.011615 277.164252 
L 101.444588 275.983358 
L 102.877562 274.531139 
L 104.310535 272.765299 
L 105.743509 270.642901 
L 107.176482 268.122348 
L 108.609456 265.165935 
L 110.042429 261.742933 
L 111.475403 257.833168 
L 112.908376 253.431087 
L 114.34135 248.549974 
L 117.207297 237.523612 
L 124.372164 207.803536 
L 125.805138 202.974906 
L 127.238112 199.10117 
L 128.671085 196.464963 
L 130.104059 195.34676 
L 131.537032 196.011016 
L 132.970006 198.691411 
L 134.402979 203.575494 
L 135.835953 210.789924 
L 137.268926 220.386985 
L 138.7019 232.333704 
L 140.134873 246.504294 
L 141.567847 262.677075 
L 144.433794 299.677962 
L 150.165688 378.748587 
L 151.598661 396.282708 
L 153.031635 411.804631 
L 154.464608 424.838181 
L 155.897582 434.991405 
L 157.330555 441.97435 
L 158.763529 445.611563 
L 160.196503 445.848434 
L 161.629476 442.751727 
L 163.06245 436.503852 
L 164.495423 427.391234 
L 165.928397 415.788028 
L 167.36137 402.136207 
L 170.227317 370.659662 
L 174.526238 320.534607 
L 177.392185 290.306391 
L 178.825158 277.125676 
L 180.258132 265.501848 
L 181.691105 255.544522 
L 183.124079 247.295177 
L 184.557052 240.734547 
L 185.990026 235.791674 
L 187.422999 232.354263 
L 188.855973 230.279405 
L 190.288947 229.403848 
L 191.72192 229.553647 
L 193.154894 230.552868 
L 194.587867 232.230508 
L 196.020841 234.426156 
L 197.453814 236.994219 
L 200.319761 242.752357 
L 204.618682 251.574619 
L 207.484629 256.913938 
L 210.350576 261.576022 
L 213.216523 265.520857 
L 216.08247 268.793024 
L 218.948417 271.478444 
L 221.814364 273.673343 
L 224.680311 275.468353 
L 227.546258 276.940256 
L 230.412205 278.151268 
L 233.278152 279.149191 
L 236.144099 279.970884 
L 240.44302 280.934716 
L 244.74194 281.642309 
L 250.473834 282.288817 
L 256.205729 282.694154 
L 263.370596 282.959547 
L 270.535464 282.987623 
L 277.700331 282.766343 
L 284.865199 282.318663 
L 313.524669 280.212156 
L 332.153325 279.114963 
L 340.751166 278.336045 
L 360.812796 276.376084 
L 370.84361 275.734518 
L 388.039293 274.905998 
L 399.503081 274.558582 
L 409.533895 274.227246 
L 413.832816 273.823238 
L 416.698763 273.326544 
L 419.56471 272.54254 
L 422.430657 271.362188 
L 423.863631 270.58741 
L 425.296604 269.671573 
L 426.729578 268.603398 
L 428.162551 267.374755 
L 429.595525 265.981841 
L 432.461472 262.718981 
L 435.327419 258.924892 
L 441.059313 250.976544 
L 442.492286 249.282893 
L 443.92526 247.87176 
L 445.358234 246.836791 
L 446.791207 246.272807 
L 448.224181 246.27174 
L 449.657154 246.918025 
L 451.090128 248.283503 
L 452.523101 250.422547 
L 453.956075 253.367464 
L 455.389048 257.12447 
L 456.822022 261.67063 
L 458.254995 266.951861 
L 459.687969 272.882332 
L 462.553916 286.197871 
L 466.852836 307.335237 
L 468.28581 313.931748 
L 469.718783 319.980104 
L 471.151757 325.302597 
L 472.58473 329.743361 
L 474.017704 333.175292 
L 475.450677 335.505879 
L 476.883651 336.681238 
L 478.316625 336.68852 
L 479.749598 335.556134 
L 481.182572 333.35231 
L 482.615545 330.182371 
L 484.048519 326.184355 
L 485.481492 321.523316 
L 488.347439 310.97037 
L 491.213386 300.145547 
L 492.64636 295.151117 
L 494.079333 290.69993 
L 495.512307 286.974466 
L 496.94528 284.13967 
L 498.378254 282.339986 
L 499.811227 281.696122 
L 501.244201 282.302417 
L 502.677174 284.225096 
L 504.110148 287.49944 
L 505.543121 292.126845 
L 506.976095 298.072395 
L 508.409068 305.26198 
L 509.842042 313.579993 
L 511.275016 322.867495 
L 514.140963 343.491747 
L 518.439883 375.229469 
L 519.872857 384.629958 
L 521.30583 392.800035 
L 522.738804 399.353229 
L 524.171777 403.923152 
L 525.604751 406.180832 
L 527.037724 405.85197 
L 528.470698 402.733379 
L 529.903671 396.708046 
L 531.336645 387.756288 
L 532.769618 375.963777 
L 534.202592 361.52451 
L 535.635565 344.738036 
L 537.068539 326.001766 
L 539.934486 284.673438 
L 544.233407 221.769721 
L 545.66638 202.943392 
L 547.099354 186.085453 
L 548.532327 171.628432 
L 549.965301 159.908592 
L 551.398274 151.153722 
L 552.831248 145.477886 
L 554.264221 142.881038 
L 555.697195 143.2543 
L 557.130168 146.391592 
L 558.563142 152.004105 
L 559.996115 159.738759 
L 561.429089 169.198006 
L 562.862062 179.959747 
L 565.728009 203.701559 
L 568.593956 227.815731 
L 571.459903 249.799488 
L 572.892877 259.448579 
L 574.325851 268.027678 
L 575.758824 275.473522 
L 577.191798 281.771482 
L 578.624771 286.947368 
L 580.057745 291.060393 
L 581.490718 294.194559 
L 582.923692 296.450653 
L 584.356665 297.940098 
L 585.789639 298.77767 
L 587.222612 299.076242 
L 588.655586 298.943014 
L 590.088559 298.476228 
L 591.521533 297.763619 
L 594.38748 295.892145 
L 601.552347 290.813775 
L 604.418294 289.13133 
L 607.284242 287.7318 
L 610.150189 286.598101 
L 613.016136 285.692692 
L 615.882083 284.972851 
L 620.181003 284.152182 
L 625.912897 283.379397 
L 633.077765 282.706073 
L 641.675606 282.138903 
L 651.706421 281.714988 
L 670.335077 281.241176 
L 673.201024 281.327 
L 673.201024 281.327 
" clip-path="url(#p67b99a9bf6)" style="fill: none; stroke-dasharray: 9.6,2.4,1.5,2.4; stroke-dashoffset: 0; stroke: #d62728; stroke-width: 1.5"/>
   </g>
   <g id="line2d_19">
    <path d="M 97.145668 281.327 
L 98.578641 282.933498 
L 101.444588 283.998821 
L 102.877562 284.72493 
L 104.310535 285.60785 
L 105.743509 286.669049 
L 107.176482 287.929326 
L 108.609456 289.407533 
L 110.042429 291.119034 
L 111.475403 293.073916 
L 112.908376 295.274957 
L 114.34135 297.715513 
L 117.207297 303.228694 
L 124.372164 318.088732 
L 125.805138 320.503047 
L 127.238112 322.439915 
L 128.671085 323.758019 
L 130.104059 324.31712 
L 131.537032 323.984992 
L 132.970006 322.644794 
L 134.402979 320.202753 
L 135.835953 316.595538 
L 137.268926 311.797008 
L 138.7019 305.823648 
L 140.134873 298.738353 
L 141.567847 290.651962 
L 144.433794 272.151519 
L 150.165688 232.616207 
L 151.598661 223.849146 
L 153.031635 216.088184 
L 154.464608 209.57141 
L 155.897582 204.494798 
L 157.330555 201.003325 
L 158.763529 199.184719 
L 160.196503 199.066283 
L 161.629476 200.614636 
L 163.06245 203.738574 
L 164.495423 208.294883 
L 165.928397 214.096486 
L 167.36137 220.922396 
L 170.227317 236.660669 
L 174.526238 261.723197 
L 177.392185 276.837305 
L 178.825158 283.427662 
L 180.258132 289.239576 
L 181.691105 294.218239 
L 183.124079 298.342912 
L 184.557052 301.623227 
L 185.990026 304.094663 
L 187.422999 305.813368 
L 188.855973 306.850798 
L 190.288947 307.288576 
L 191.72192 307.213676 
L 193.154894 306.714066 
L 194.587867 305.875246 
L 196.020841 304.777422 
L 198.886788 302.087374 
L 206.051655 294.82969 
L 208.917602 292.323129 
L 211.783549 290.172153 
L 214.649496 288.372408 
L 217.515443 286.888964 
L 220.38139 285.674846 
L 223.247338 284.682681 
L 226.113285 283.87026 
L 230.412205 282.914866 
L 234.711126 282.200459 
L 240.44302 281.523142 
L 246.174914 281.074563 
L 253.339781 280.732375 
L 263.370596 280.510726 
L 273.401411 280.525806 
L 283.432225 280.779193 
L 327.854405 282.279888 
L 340.751166 282.822477 
L 363.678743 283.905322 
L 382.307399 284.413501 
L 399.503081 284.711209 
L 410.966869 284.92772 
L 415.26579 285.188242 
L 418.131737 285.502013 
L 420.997684 285.985926 
L 423.863631 286.696795 
L 426.729578 287.688801 
L 429.595525 288.99958 
L 432.461472 290.631009 
L 435.327419 292.528054 
L 441.059313 296.502228 
L 442.492286 297.349053 
L 443.92526 298.05462 
L 445.358234 298.572104 
L 446.791207 298.854097 
L 448.224181 298.85463 
L 449.657154 298.531488 
L 451.090128 297.848748 
L 452.523101 296.779227 
L 453.956075 295.306768 
L 455.389048 293.428265 
L 456.822022 291.155185 
L 458.254995 288.51457 
L 459.687969 285.549334 
L 462.553916 278.891565 
L 468.28581 265.024626 
L 469.718783 262.000448 
L 471.151757 259.339202 
L 472.58473 257.118819 
L 474.017704 255.402854 
L 475.450677 254.23756 
L 476.883651 253.649881 
L 478.316625 253.64624 
L 479.749598 254.212433 
L 481.182572 255.314345 
L 482.615545 256.899314 
L 484.048519 258.898322 
L 485.481492 261.228842 
L 488.347439 266.505315 
L 491.213386 271.917727 
L 492.64636 274.414942 
L 494.079333 276.640535 
L 495.512307 278.503267 
L 496.94528 279.920665 
L 498.378254 280.820507 
L 499.811227 281.142439 
L 501.244201 280.839292 
L 502.677174 279.877952 
L 504.110148 278.24078 
L 505.543121 275.927078 
L 506.976095 272.954302 
L 508.409068 269.35951 
L 509.842042 265.200503 
L 511.275016 260.556753 
L 514.140963 250.244627 
L 518.439883 234.375766 
L 519.872857 229.675521 
L 521.30583 225.590483 
L 522.738804 222.313886 
L 524.171777 220.028924 
L 525.604751 218.900084 
L 527.037724 219.064515 
L 528.470698 220.623811 
L 529.903671 223.636477 
L 531.336645 228.112356 
L 532.769618 234.008611 
L 534.202592 241.228245 
L 535.635565 249.621482 
L 538.501512 269.091729 
L 544.233407 311.10564 
L 545.66638 320.518804 
L 547.099354 328.947773 
L 548.532327 336.176284 
L 549.965301 342.036204 
L 551.398274 346.413639 
L 552.831248 349.251557 
L 554.264221 350.549981 
L 555.697195 350.36335 
L 557.130168 348.794704 
L 558.563142 345.988447 
L 559.996115 342.121121 
L 561.429089 337.391497 
L 562.862062 332.010627 
L 565.728009 320.139721 
L 568.593956 308.082635 
L 571.459903 297.090756 
L 572.892877 292.26621 
L 574.325851 287.976661 
L 575.758824 284.253739 
L 577.191798 281.104759 
L 578.624771 278.516816 
L 580.057745 276.460303 
L 581.490718 274.893221 
L 582.923692 273.765173 
L 584.356665 273.020451 
L 585.789639 272.601665 
L 587.222612 272.452379 
L 588.655586 272.518993 
L 590.088559 272.752386 
L 592.954506 273.54997 
L 604.418294 277.424835 
L 608.717215 278.423597 
L 613.016136 279.144154 
L 617.315056 279.655806 
L 623.04695 280.125332 
L 631.644791 280.579006 
L 643.10858 280.958457 
L 658.871288 281.231092 
L 673.201024 281.327 
L 673.201024 281.327 
" clip-path="url(#p67b99a9bf6)" style="fill: none; stroke-dasharray: 1.5,2.475; stroke-dashoffset: 0; stroke: #9467bd; stroke-width: 1.5"/>
   </g>
   <g id="patch_3">
    <path d="M 98.578641 560.929182 
L 98.578641 50.454671 
" style="fill: none; stroke: #000000; stroke-width: 0.8; stroke-linejoin: miter; stroke-linecap: square"/>
   </g>
   <g id="patch_4">
    <path d="M 671.76805 560.929182 
L 671.76805 50.454671 
" style="fill: none; stroke: #000000; stroke-width: 0.8; stroke-linejoin: miter; stroke-linecap: square"/>
   </g>
   <g id="patch_5">
    <path d="M 98.578641 560.929182 
L 671.76805 560.929182 
" style="fill: none; stroke: #000000; stroke-width: 0.8; stroke-linejoin: miter; stroke-linecap: square"/>
   </g>
   <g id="patch_6">
    <path d="M 98.578641 50.454671 
L 671.76805 50.454671 
" style="fill: none; stroke: #000000; stroke-width: 0.8; stroke-linejoin: miter; stroke-linecap: square"/>
   </g>
   <g id="legend_1">
    <g id="patch_7">
     <path d="M 192.667156 549.929182 
L 520.360594 549.929182 
Q 524.760594 549.929182 524.760594 545.529182 
L 524.760594 386.269807 
Q 524.760594 381.869807 520.360594 381.869807 
L 192.667156 381.869807 
Q 188.267156 381.869807 188.267156 386.269807 
L 188.267156 545.529182 
Q 188.267156 549.929182 192.667156 549.929182 
z
" style="fill: #ffffff; opacity: 0.8; stroke: #cccccc; stroke-linejoin: miter"/>
    </g>
    <g id="line2d_20">
     <path d="M 197.067156 399.686369 
L 219.067156 399.686369 
L 241.067156 399.686369 
" style="fill: none; stroke: #1f77b4; stroke-width: 1.5; stroke-linecap: square"/>
    </g>
    <g id="text_18">
     <!-- bulk NN -->
     <g transform="translate(258.667156 407.386369) scale(0.22 -0.22)">
      <defs>
       <path id="DejaVuSans-62" d="M 3116 1747 
Q 3116 2381 2855 2742 
Q 2594 3103 2138 3103 
Q 1681 3103 1420 2742 
Q 1159 2381 1159 1747 
Q 1159 1113 1420 752 
Q 1681 391 2138 391 
Q 2594 391 2855 752 
Q 3116 1113 3116 1747 
z
M 1159 2969 
Q 1341 3281 1617 3432 
Q 1894 3584 2278 3584 
Q 2916 3584 3314 3078 
Q 3713 2572 3713 1747 
Q 3713 922 3314 415 
Q 2916 -91 2278 -91 
Q 1894 -91 1617 61 
Q 1341 213 1159 525 
L 1159 0 
L 581 0 
L 581 4863 
L 1159 4863 
L 1159 2969 
z
" transform="scale(0.015625)"/>
       <path id="DejaVuSans-75" d="M 544 1381 
L 544 3500 
L 1119 3500 
L 1119 1403 
Q 1119 906 1312 657 
Q 1506 409 1894 409 
Q 2359 409 2629 706 
Q 2900 1003 2900 1516 
L 2900 3500 
L 3475 3500 
L 3475 0 
L 2900 0 
L 2900 538 
Q 2691 219 2414 64 
Q 2138 -91 1772 -91 
Q 1169 -91 856 284 
Q 544 659 544 1381 
z
M 1991 3584 
L 1991 3584 
z
" transform="scale(0.015625)"/>
       <path id="DejaVuSans-6c" d="M 603 4863 
L 1178 4863 
L 1178 0 
L 603 0 
L 603 4863 
z
" transform="scale(0.015625)"/>
       <path id="DejaVuSans-6b" d="M 581 4863 
L 1159 4863 
L 1159 1991 
L 2875 3500 
L 3609 3500 
L 1753 1863 
L 3688 0 
L 2938 0 
L 1159 1709 
L 1159 0 
L 581 0 
L 581 4863 
z
" transform="scale(0.015625)"/>
      </defs>
      <use xlink:href="#DejaVuSans-62"/>
      <use xlink:href="#DejaVuSans-75" x="63.476562"/>
      <use xlink:href="#DejaVuSans-6c" x="126.855469"/>
      <use xlink:href="#DejaVuSans-6b" x="154.638672"/>
      <use xlink:href="#DejaVuSans-20" x="212.548828"/>
      <use xlink:href="#DejaVuSans-4e" x="244.335938"/>
      <use xlink:href="#DejaVuSans-4e" x="319.140625"/>
     </g>
    </g>
    <g id="line2d_21">
     <path d="M 197.067156 431.978244 
L 219.067156 431.978244 
L 241.067156 431.978244 
" style="fill: none; stroke: #ff7f0e; stroke-width: 1.5; stroke-linecap: square"/>
    </g>
    <g id="text_19">
     <!-- dipole NN -->
     <g transform="translate(258.667156 439.678244) scale(0.22 -0.22)">
      <defs>
       <path id="DejaVuSans-64" d="M 2906 2969 
L 2906 4863 
L 3481 4863 
L 3481 0 
L 2906 0 
L 2906 525 
Q 2725 213 2448 61 
Q 2172 -91 1784 -91 
Q 1150 -91 751 415 
Q 353 922 353 1747 
Q 353 2572 751 3078 
Q 1150 3584 1784 3584 
Q 2172 3584 2448 3432 
Q 2725 3281 2906 2969 
z
M 947 1747 
Q 947 1113 1208 752 
Q 1469 391 1925 391 
Q 2381 391 2643 752 
Q 2906 1113 2906 1747 
Q 2906 2381 2643 2742 
Q 2381 3103 1925 3103 
Q 1469 3103 1208 2742 
Q 947 2381 947 1747 
z
" transform="scale(0.015625)"/>
       <path id="DejaVuSans-70" d="M 1159 525 
L 1159 -1331 
L 581 -1331 
L 581 3500 
L 1159 3500 
L 1159 2969 
Q 1341 3281 1617 3432 
Q 1894 3584 2278 3584 
Q 2916 3584 3314 3078 
Q 3713 2572 3713 1747 
Q 3713 922 3314 415 
Q 2916 -91 2278 -91 
Q 1894 -91 1617 61 
Q 1341 213 1159 525 
z
M 3116 1747 
Q 3116 2381 2855 2742 
Q 2594 3103 2138 3103 
Q 1681 3103 1420 2742 
Q 1159 2381 1159 1747 
Q 1159 1113 1420 752 
Q 1681 391 2138 391 
Q 2594 391 2855 752 
Q 3116 1113 3116 1747 
z
" transform="scale(0.015625)"/>
      </defs>
      <use xlink:href="#DejaVuSans-64"/>
      <use xlink:href="#DejaVuSans-69" x="63.476562"/>
      <use xlink:href="#DejaVuSans-70" x="91.259766"/>
      <use xlink:href="#DejaVuSans-6f" x="154.736328"/>
      <use xlink:href="#DejaVuSans-6c" x="215.917969"/>
      <use xlink:href="#DejaVuSans-65" x="243.701172"/>
      <use xlink:href="#DejaVuSans-20" x="305.224609"/>
      <use xlink:href="#DejaVuSans-4e" x="337.011719"/>
      <use xlink:href="#DejaVuSans-4e" x="411.816406"/>
     </g>
    </g>
    <g id="line2d_22">
     <path d="M 197.067156 464.270119 
L 219.067156 464.270119 
L 241.067156 464.270119 
" style="fill: none; stroke-dasharray: 5.55,2.4; stroke-dashoffset: 0; stroke: #2ca02c; stroke-width: 1.5"/>
    </g>
    <g id="text_20">
     <!-- bulk prediction -->
     <g transform="translate(258.667156 471.970119) scale(0.22 -0.22)">
      <defs>
       <path id="DejaVuSans-6e" d="M 3513 2113 
L 3513 0 
L 2938 0 
L 2938 2094 
Q 2938 2591 2744 2837 
Q 2550 3084 2163 3084 
Q 1697 3084 1428 2787 
Q 1159 2491 1159 1978 
L 1159 0 
L 581 0 
L 581 3500 
L 1159 3500 
L 1159 2956 
Q 1366 3272 1645 3428 
Q 1925 3584 2291 3584 
Q 2894 3584 3203 3211 
Q 3513 2838 3513 2113 
z
" transform="scale(0.015625)"/>
      </defs>
      <use xlink:href="#DejaVuSans-62"/>
      <use xlink:href="#DejaVuSans-75" x="63.476562"/>
      <use xlink:href="#DejaVuSans-6c" x="126.855469"/>
      <use xlink:href="#DejaVuSans-6b" x="154.638672"/>
      <use xlink:href="#DejaVuSans-20" x="212.548828"/>
      <use xlink:href="#DejaVuSans-70" x="244.335938"/>
      <use xlink:href="#DejaVuSans-72" x="307.8125"/>
      <use xlink:href="#DejaVuSans-65" x="346.675781"/>
      <use xlink:href="#DejaVuSans-64" x="408.199219"/>
      <use xlink:href="#DejaVuSans-69" x="471.675781"/>
      <use xlink:href="#DejaVuSans-63" x="499.458984"/>
      <use xlink:href="#DejaVuSans-74" x="554.439453"/>
      <use xlink:href="#DejaVuSans-69" x="593.648438"/>
      <use xlink:href="#DejaVuSans-6f" x="621.431641"/>
      <use xlink:href="#DejaVuSans-6e" x="682.613281"/>
     </g>
    </g>
    <g id="line2d_23">
     <path d="M 197.067156 496.561994 
L 219.067156 496.561994 
L 241.067156 496.561994 
" style="fill: none; stroke-dasharray: 9.6,2.4,1.5,2.4; stroke-dashoffset: 0; stroke: #d62728; stroke-width: 1.5"/>
    </g>
    <g id="text_21">
     <!-- bulk+cavern prediction -->
     <g transform="translate(258.667156 504.261994) scale(0.22 -0.22)">
      <defs>
       <path id="DejaVuSans-2b" d="M 2944 4013 
L 2944 2272 
L 4684 2272 
L 4684 1741 
L 2944 1741 
L 2944 0 
L 2419 0 
L 2419 1741 
L 678 1741 
L 678 2272 
L 2419 2272 
L 2419 4013 
L 2944 4013 
z
" transform="scale(0.015625)"/>
       <path id="DejaVuSans-61" d="M 2194 1759 
Q 1497 1759 1228 1600 
Q 959 1441 959 1056 
Q 959 750 1161 570 
Q 1363 391 1709 391 
Q 2188 391 2477 730 
Q 2766 1069 2766 1631 
L 2766 1759 
L 2194 1759 
z
M 3341 1997 
L 3341 0 
L 2766 0 
L 2766 531 
Q 2569 213 2275 61 
Q 1981 -91 1556 -91 
Q 1019 -91 701 211 
Q 384 513 384 1019 
Q 384 1609 779 1909 
Q 1175 2209 1959 2209 
L 2766 2209 
L 2766 2266 
Q 2766 2663 2505 2880 
Q 2244 3097 1772 3097 
Q 1472 3097 1187 3025 
Q 903 2953 641 2809 
L 641 3341 
Q 956 3463 1253 3523 
Q 1550 3584 1831 3584 
Q 2591 3584 2966 3190 
Q 3341 2797 3341 1997 
z
" transform="scale(0.015625)"/>
       <path id="DejaVuSans-76" d="M 191 3500 
L 800 3500 
L 1894 563 
L 2988 3500 
L 3597 3500 
L 2284 0 
L 1503 0 
L 191 3500 
z
" transform="scale(0.015625)"/>
      </defs>
      <use xlink:href="#DejaVuSans-62"/>
      <use xlink:href="#DejaVuSans-75" x="63.476562"/>
      <use xlink:href="#DejaVuSans-6c" x="126.855469"/>
      <use xlink:href="#DejaVuSans-6b" x="154.638672"/>
      <use xlink:href="#DejaVuSans-2b" x="212.548828"/>
      <use xlink:href="#DejaVuSans-63" x="296.337891"/>
      <use xlink:href="#DejaVuSans-61" x="351.318359"/>
      <use xlink:href="#DejaVuSans-76" x="412.597656"/>
      <use xlink:href="#DejaVuSans-65" x="471.777344"/>
      <use xlink:href="#DejaVuSans-72" x="533.300781"/>
      <use xlink:href="#DejaVuSans-6e" x="572.664062"/>
      <use xlink:href="#DejaVuSans-20" x="636.042969"/>
      <use xlink:href="#DejaVuSans-70" x="667.830078"/>
      <use xlink:href="#DejaVuSans-72" x="731.306641"/>
      <use xlink:href="#DejaVuSans-65" x="770.169922"/>
      <use xlink:href="#DejaVuSans-64" x="831.693359"/>
      <use xlink:href="#DejaVuSans-69" x="895.169922"/>
      <use xlink:href="#DejaVuSans-63" x="922.953125"/>
      <use xlink:href="#DejaVuSans-74" x="977.933594"/>
      <use xlink:href="#DejaVuSans-69" x="1017.142578"/>
      <use xlink:href="#DejaVuSans-6f" x="1044.925781"/>
      <use xlink:href="#DejaVuSans-6e" x="1106.107422"/>
     </g>
    </g>
    <g id="line2d_24">
     <path d="M 197.067156 528.853869 
L 219.067156 528.853869 
L 241.067156 528.853869 
" style="fill: none; stroke-dasharray: 1.5,2.475; stroke-dashoffset: 0; stroke: #9467bd; stroke-width: 1.5"/>
    </g>
    <g id="text_22">
     <!-- cavern prediction -->
     <g transform="translate(258.667156 536.553869) scale(0.22 -0.22)">
      <use xlink:href="#DejaVuSans-63"/>
      <use xlink:href="#DejaVuSans-61" x="54.980469"/>
      <use xlink:href="#DejaVuSans-76" x="116.259766"/>
      <use xlink:href="#DejaVuSans-65" x="175.439453"/>
      <use xlink:href="#DejaVuSans-72" x="236.962891"/>
      <use xlink:href="#DejaVuSans-6e" x="276.326172"/>
      <use xlink:href="#DejaVuSans-20" x="339.705078"/>
      <use xlink:href="#DejaVuSans-70" x="371.492188"/>
      <use xlink:href="#DejaVuSans-72" x="434.96875"/>
      <use xlink:href="#DejaVuSans-65" x="473.832031"/>
      <use xlink:href="#DejaVuSans-64" x="535.355469"/>
      <use xlink:href="#DejaVuSans-69" x="598.832031"/>
      <use xlink:href="#DejaVuSans-63" x="626.615234"/>
      <use xlink:href="#DejaVuSans-74" x="681.595703"/>
      <use xlink:href="#DejaVuSans-69" x="720.804688"/>
      <use xlink:href="#DejaVuSans-6f" x="748.587891"/>
      <use xlink:href="#DejaVuSans-6e" x="809.769531"/>
     </g>
    </g>
   </g>
  </g>
 </g>
 <defs>
  <clipPath id="p67b99a9bf6">
   <rect x="98.578641" y="50.454671" width="573.189409" height="510.474511"/>
  </clipPath>
 </defs>
</svg>
